<?xml version="1.0" standalone="no"?>
<!DOCTYPE svg PUBLIC "-//W3C//DTD SVG 20010904//EN"
 "http://www.w3.org/TR/2001/REC-SVG-20010904/DTD/svg10.dtd">
<svg version="1.0" xmlns="http://www.w3.org/2000/svg"
 width="499.000000pt" height="500.000000pt" viewBox="0 0 499.000000 500.000000"
 preserveAspectRatio="xMidYMid meet">

<g transform="translate(0.000000,500.000000) scale(0.100000,-0.100000)"
fill="#000000" stroke="none">
<path d="M2160 4965 c-263 -38 -531 -122 -755 -234 -1003 -507 -1545 -1616
-1326 -2716 58 -290 199 -635 358 -872 199 -299 477 -570 773 -754 277 -172
637 -301 965 -345 191 -26 535 -24 712 4 768 122 1396 557 1792 1240 112 192
205 440 261 692 100 448 50 1046 -122 1459 -198 476 -515 863 -934 1141 -312
206 -644 332 -1019 385 -126 18 -582 18 -705 0z m-567 -1383 c43 10 122 3 147
-12 12 -8 12 -10 0 -14 -70 -25 -72 -26 -61 -40 9 -11 3 -15 -31 -20 -54 -9
-108 -28 -108 -38 0 -4 6 -8 13 -8 6 0 3 -6 -8 -12 -28 -15 -85 -70 -85 -82 0
-5 8 -2 18 7 10 10 23 17 29 17 6 0 30 9 54 20 54 24 88 25 137 4 39 -17 38
-19 -20 -29 -24 -3 -38 -11 -38 -20 0 -9 -18 -19 -45 -26 -25 -6 -48 -16 -52
-22 -4 -7 1 -8 13 -3 37 14 118 20 110 8 -5 -9 51 -12 221 -13 402 -2 572 -11
618 -34 54 -27 82 -80 90 -170 10 -101 -7 -172 -52 -224 -19 -23 -34 -43 -32
-44 2 -2 16 -9 32 -17 40 -20 75 -71 79 -116 l3 -39 -133 -3 -133 -3 -10 31
c-6 17 -19 35 -29 40 -11 6 -139 10 -309 10 l-291 0 0 -75 0 -75 145 0 146 0
-3 -117 -3 -118 -160 -3 c-88 -2 -266 0 -394 3 -197 6 -231 9 -210 20 13 7 41
15 62 19 36 7 38 9 32 37 -9 38 15 76 60 94 27 12 33 21 37 50 2 19 0 35 -4
35 -4 0 -8 22 -8 49 0 26 -5 73 -10 102 -6 30 -22 133 -35 228 -30 207 -45
234 -108 199 -12 -7 -28 -13 -35 -14 -18 -3 -49 -43 -64 -81 -7 -18 -16 -33
-20 -33 -4 0 -8 -14 -8 -32 0 -30 -1 -31 -17 -16 -26 27 -29 114 -5 167 21 46
72 80 120 81 13 0 21 4 17 10 -3 5 -12 7 -19 4 -7 -3 -16 2 -19 10 -8 20 -37
20 -85 1 -25 -11 -38 -12 -40 -5 -2 6 -22 0 -49 -16 -39 -22 -43 -23 -34 -7
16 32 83 88 121 102 19 7 43 17 52 22 27 14 71 11 96 -7 36 -25 41 -5 6 25
-27 24 -29 29 -15 38 13 9 11 14 -17 43 -18 18 -30 35 -27 38 11 11 79 2 95
-13 10 -9 23 -15 30 -13 17 4 39 -39 41 -77 0 -26 3 -23 19 22 10 29 31 69 47
89 30 40 86 80 91 65 2 -5 21 -5 45 1z m2257 -356 c0 -74 1 -75 35 -102 38
-29 39 -44 2 -37 -18 4 -26 0 -30 -16 -4 -18 -13 -21 -59 -22 -45 0 -49 -2
-28 -10 27 -11 70 -48 70 -60 0 -4 -14 -2 -32 4 -22 9 -32 9 -35 1 -2 -6 -16
-9 -31 -7 l-27 4 24 -13 c13 -7 24 -17 23 -23 0 -5 9 -22 19 -36 10 -15 23
-38 29 -53 11 -29 3 -29 -32 2 -14 12 -18 12 -18 2 0 -8 -14 0 -33 18 -18 18
-40 32 -49 32 -9 0 -29 7 -44 15 -37 19 -54 19 -81 0 -42 -29 -78 -139 -93
-275 -14 -140 -15 -137 25 -150 41 -14 85 -62 85 -95 0 -18 7 -24 35 -29 81
-16 31 -24 -178 -31 -122 -4 -238 -5 -257 -3 l-35 3 -3 344 c-2 261 -5 347
-15 353 -6 4 -101 8 -209 8 l-198 0 0 119 0 120 33 4 c17 2 274 5 570 5 l537
2 0 -74z m-850 -437 c0 -244 -14 -317 -72 -370 -21 -20 -64 -47 -96 -59 -54
-21 -75 -23 -399 -28 l-343 -5 0 126 c0 111 2 126 18 130 9 3 133 5 276 5 343
0 323 -15 325 245 l1 147 145 0 145 0 0 -191z m-2097 -757 c21 -22 27 -38 27
-73 0 -33 6 -51 20 -64 30 -27 29 -130 -2 -162 -20 -22 -28 -23 -163 -23 -96
0 -145 4 -153 12 -8 8 -12 57 -12 157 0 187 -5 181 145 181 109 0 112 -1 138
-28z m417 14 c0 -8 -4 -26 -10 -40 l-10 -26 -150 0 -150 0 0 30 c0 43 21 49
183 49 113 1 137 -2 137 -13z m347 -8 c44 -42 26 -188 -24 -188 -22 0 -15 -21
27 -76 22 -29 40 -56 40 -59 0 -3 -26 -5 -58 -5 l-59 0 -35 53 c-54 79 -57 88
-42 125 12 28 19 32 50 32 33 0 35 2 32 28 -3 26 -5 27 -75 30 l-73 3 0 -31
c0 -16 5 -30 10 -30 6 0 10 -42 10 -105 l0 -105 -43 0 c-24 0 -48 5 -55 12 -8
8 -12 57 -12 157 0 189 -7 181 158 181 115 0 128 -2 149 -22z m191 -17 c2 -18
-1 -38 -7 -44 -6 -6 -11 -21 -11 -34 0 -17 6 -23 24 -23 19 0 28 12 54 70 31
70 31 70 71 70 22 0 42 -4 45 -9 3 -4 -10 -45 -28 -91 -38 -91 -38 -89 16
-183 16 -26 28 -52 28 -57 0 -6 -21 -10 -47 -10 l-48 0 -35 67 c-48 92 -60 92
-60 4 l0 -71 -43 0 c-24 0 -48 5 -55 12 -8 8 -12 57 -12 157 0 167 7 184 69
179 33 -3 36 -6 39 -37z m482 36 c0 -1 34 -76 75 -166 41 -90 75 -168 75 -172
0 -5 -23 -9 -51 -9 -47 0 -51 2 -60 30 -10 29 -13 30 -69 30 l-58 0 11 35 c9
29 15 35 39 35 32 0 34 9 9 65 l-18 40 -17 -53 c-10 -28 -23 -52 -29 -52 -7 0
-25 -29 -41 -65 l-30 -65 -48 0 c-26 0 -48 2 -48 5 0 2 14 35 31 72 17 38 47
104 66 148 52 122 55 125 113 125 28 0 50 -1 50 -3z m282 -69 l3 -73 69 0 c73
0 89 10 61 39 -11 11 -15 29 -13 58 3 39 6 43 32 46 19 2 36 -4 52 -19 23 -22
24 -27 24 -176 l0 -154 -52 3 -53 3 -3 63 -3 62 -59 0 -60 0 0 -65 0 -65 -38
0 c-21 0 -43 5 -50 12 -8 8 -12 57 -12 157 0 163 7 181 66 181 l33 0 3 -72z
m662 51 c26 -20 26 -22 26 -152 -1 -178 0 -177 -149 -177 -123 0 -131 4 -131
74 0 40 2 42 52 51 33 6 37 5 40 -17 3 -20 9 -23 51 -26 45 -3 47 -2 47 22 0
15 -4 26 -10 26 -11 0 -14 202 -3 213 13 14 51 7 77 -14z m348 -66 c22 -49 53
-117 70 -153 55 -118 55 -110 -5 -110 -49 0 -53 2 -64 30 -11 29 -14 30 -72
30 l-60 0 14 33 c10 25 20 33 43 35 l30 3 -15 45 c-8 24 -18 46 -23 49 -4 2
-13 -16 -20 -41 -7 -25 -19 -48 -27 -51 -8 -3 -27 -34 -43 -69 l-29 -64 -45 0
c-27 0 -46 5 -46 11 0 11 39 100 111 257 l39 82 51 0 50 0 41 -87z m206 37
c15 -27 29 -50 32 -50 3 0 18 23 33 50 27 48 30 50 72 50 24 0 46 -4 49 -8 6
-11 -79 -152 -104 -174 -21 -17 -26 -43 -10 -53 6 -3 10 -31 10 -61 l0 -54
-38 0 c-53 0 -62 13 -62 92 0 69 -13 99 -91 211 -26 36 -17 47 37 47 43 0 45
-2 72 -50z m488 -115 c40 -88 73 -166 74 -172 0 -9 -16 -13 -48 -13 -43 0 -48
3 -60 30 -13 28 -17 30 -73 30 l-59 0 13 33 c10 23 21 33 40 35 32 4 32 8 10
63 l-16 41 -19 -51 c-11 -28 -25 -51 -31 -51 -7 0 -24 -28 -38 -63 l-25 -62
-52 -3 c-29 -2 -52 -1 -52 2 0 3 20 47 43 98 24 51 57 122 72 158 40 91 41 91
98 88 l50 -3 73 -160z m-3071 -12 l-13 -38 -81 -3 c-79 -3 -81 -4 -81 -27 l0
-25 120 0 c131 0 138 -4 104 -55 -16 -24 -19 -25 -148 -25 -89 0 -136 4 -144
12 -8 8 -12 46 -12 105 l0 93 134 0 134 0 -13 -37z m1300 -293 c38 -14 26 -35
-20 -35 -45 0 -57 -20 -18 -29 101 -25 97 -106 -5 -106 -54 0 -75 10 -63 28 5
8 23 12 46 10 46 -4 60 18 18 27 -45 10 -58 20 -61 49 -4 32 11 53 41 59 12 2
25 5 29 6 4 0 19 -4 33 -9z m643 -18 c18 -12 22 -23 22 -63 0 -64 -23 -89 -84
-89 -61 0 -96 29 -96 79 0 85 81 123 158 73z m-1838 4 c0 -9 -12 -16 -27 -18
-27 -3 -28 -5 -31 -70 -3 -60 -5 -68 -22 -68 -18 0 -20 7 -20 70 0 68 -1 70
-25 70 -16 0 -25 6 -25 15 0 12 15 15 75 15 58 0 75 -3 75 -14z m280 -6 c24
-24 25 -48 4 -78 -14 -21 -14 -25 0 -47 16 -24 16 -25 -8 -25 -15 0 -30 8 -36
20 -6 11 -20 20 -30 20 -13 0 -20 -7 -20 -20 0 -13 -7 -20 -20 -20 -18 0 -20
7 -20 85 l0 85 55 0 c42 0 60 -5 75 -20z m311 -67 l38 -83 -25 0 c-17 0 -28 7
-31 20 -4 16 -14 20 -43 20 -30 0 -40 -5 -45 -20 -6 -20 -45 -29 -45 -10 0 6
14 40 30 75 17 35 30 69 30 75 0 6 12 10 27 8 23 -3 32 -15 64 -85z m252 42
c19 -24 37 -42 41 -38 3 3 6 24 6 45 0 31 3 38 20 38 18 0 20 -7 20 -85 0 -77
-2 -85 -19 -85 -11 0 -38 21 -60 48 l-41 47 0 -47 c0 -41 -3 -48 -20 -48 -18
0 -20 7 -20 85 0 78 2 85 20 85 11 0 33 -19 53 -45z m669 28 c41 -37 2 -113
-57 -113 -14 0 -25 -7 -28 -20 -3 -12 -14 -20 -26 -20 -20 0 -21 5 -21 85 l0
85 57 0 c38 0 62 -5 75 -17z m640 0 c23 -21 24 -79 1 -91 -16 -9 -16 -11 0
-27 9 -9 17 -21 17 -26 0 -17 -40 -9 -52 11 -7 11 -21 20 -30 20 -11 0 -18 -8
-18 -20 0 -13 -7 -20 -20 -20 -18 0 -20 7 -20 85 l0 85 52 0 c34 0 58 -6 70
-17z m308 2 c0 -9 -9 -15 -25 -15 -24 0 -25 -2 -25 -70 0 -63 -2 -70 -20 -70
-15 0 -20 7 -21 28 -1 15 -2 45 -3 67 -1 36 -4 40 -28 43 -16 2 -28 9 -28 18
0 11 17 14 75 14 60 0 75 -3 75 -15z"/>
<path d="M1410 3150 c-8 -20 -10 -51 -6 -93 10 -94 28 -177 37 -177 5 0 9 68
9 150 0 121 -3 150 -14 150 -7 0 -19 -14 -26 -30z"/>
<path d="M1722 2998 l3 -73 271 1 c183 1 278 5 292 13 18 9 22 21 22 56 0 75
-2 75 -318 75 l-273 0 3 -72z"/>
<path d="M3718 3043 c7 -3 16 -2 19 1 4 3 -2 6 -13 5 -11 0 -14 -3 -6 -6z"/>
<path d="M3437 2983 c-4 -3 -7 -58 -7 -121 0 -64 2 -113 5 -110 11 11 65 173
65 195 0 29 -45 55 -63 36z"/>
<path d="M730 1951 c0 -30 1 -31 51 -31 49 0 50 1 47 28 -3 25 -7 27 -50 30
-47 3 -48 3 -48 -27z"/>
<path d="M710 1815 c0 -25 1 -25 80 -25 79 0 80 0 80 25 0 25 -1 25 -80 25
-79 0 -80 0 -80 -25z"/>
<path d="M3102 1544 c-28 -19 -28 -48 -1 -75 21 -21 56 -19 71 5 13 20 8 53
-10 69 -23 21 -32 21 -60 1z"/>
<path d="M1550 1529 c0 -27 3 -30 27 -27 49 5 40 57 -9 58 -13 0 -18 -8 -18
-31z"/>
<path d="M1880 1533 c0 -6 -3 -18 -6 -27 -4 -12 0 -16 15 -16 12 0 21 4 21 8
0 13 -29 48 -30 35z"/>
<path d="M2790 1530 c0 -23 5 -30 19 -30 10 0 25 7 32 16 11 14 10 18 -6 30
-30 22 -45 17 -45 -16z"/>
<path d="M3430 1529 c0 -27 3 -30 27 -27 49 5 40 57 -9 58 -13 0 -18 -8 -18
-31z"/>
<path d="M138 3 c12 -2 30 -2 40 0 9 3 -1 5 -23 4 -22 0 -30 -2 -17 -4z"/>
<path d="M518 3 c34 -2 88 -2 120 0 31 2 3 3 -63 3 -66 0 -92 -1 -57 -3z"/>
<path d="M1053 3 c114 -2 300 -2 415 0 114 1 20 2 -208 2 -228 0 -322 -1 -207
-2z"/>
<path d="M3463 3 c71 -2 183 -2 250 0 67 1 10 3 -128 3 -137 0 -192 -2 -122
-3z"/>
<path d="M4113 3 c120 -2 314 -2 430 0 117 1 19 2 -218 2 -236 0 -332 -1 -212
-2z"/>
<path d="M4803 3 c15 -2 37 -2 50 0 12 2 0 4 -28 4 -27 0 -38 -2 -22 -4z"/>
</g>
</svg>
